<svg width="192" height="192" viewBox="0 0 192 192" fill="none" xmlns="http://www.w3.org/2000/svg">
  <rect width="192" height="192" rx="32" fill="#0F7B85"/>
  <path d="M96 48C79.4315 48 66 61.4315 66 78V90H54C50.6863 90 48 92.6863 48 96L51 144C51 147.314 53.6863 150 57 150H135C138.314 150 141 147.314 141 144L144 96C144 92.6863 141.314 90 138 90H126V78C126 61.4315 112.569 48 96 48Z" fill="white"/>
  <path d="M78 78C78 68.0589 86.0589 60 96 60C105.941 60 114 68.0589 114 78V90H78V78Z" fill="#EBF4F4"/>
</svg>
